<svg xmlns="http://www.w3.org/2000/svg" viewBox="0 0 255 255"><defs><style>.cls-1,.cls-2,.cls-3,.cls-4{fill:none;stroke:#000;stroke-linecap:square;stroke-width:5px;}.cls-2{stroke-dasharray:12.53 12.53;}.cls-3{stroke-dasharray:0.02 9.55;}.cls-4{stroke-dasharray:0.02 8.7;}</style></defs><title>Asset 2</title><g id="Layer_2" data-name="Layer 2"><g id="Layer_1-2" data-name="Layer 1"><polyline class="cls-1" points="252.5 246.5 252.5 252.5 246.5 252.5"/><line class="cls-2" x1="233.97" y1="252.5" x2="14.76" y2="252.5"/><polyline class="cls-1" points="8.5 252.5 2.5 252.5 2.5 246.5"/><line class="cls-2" x1="2.5" y1="233.97" x2="2.5" y2="14.76"/><polyline class="cls-1" points="2.5 8.5 2.5 2.5 8.5 2.5"/><line class="cls-2" x1="21.03" y1="2.5" x2="240.24" y2="2.5"/><polyline class="cls-1" points="246.5 2.5 252.5 2.5 252.5 8.5"/><line class="cls-2" x1="252.5" y1="21.03" x2="252.5" y2="240.24"/><polyline class="cls-1" points="214.83 118.28 214.83 118.28 214.82 118.28"/><line class="cls-3" x1="205.27" y1="118.28" x2="123.96" y2="118.28"/><polyline class="cls-1" points="119.18 118.28 119.17 118.28 119.17 118.28"/><line class="cls-4" x1="119.17" y1="109.58" x2="119.17" y2="96.49"/><polyline class="cls-1" points="119.17 92.15 119.17 92.14 119.18 92.14"/><line class="cls-3" x1="128.73" y1="92.14" x2="210.04" y2="92.14"/><polyline class="cls-1" points="214.82 92.14 214.83 92.14 214.83 92.15"/><line class="cls-4" x1="214.83" y1="100.84" x2="214.83" y2="113.93"/><rect class="cls-1" x="22.5" y="23.65" width="210" height="36.2"/><rect class="cls-1" x="22.5" y="76.09" width="62.5" height="157.54"/><rect class="cls-1" x="101.5" y="76.09" width="131" height="157.54"/></g></g></svg>