<svg xmlns="http://www.w3.org/2000/svg" viewBox="0 0 295.97 296.72"><defs><style>.cls-1{fill:none;}.cls-1,.cls-2{stroke:#000;stroke-linecap:round;stroke-linejoin:round;stroke-width:5px;}.cls-2{fill:#fff;}</style></defs><title>Asset 4</title><g id="Layer_2" data-name="Layer 2"><g id="Layer_1-2" data-name="Layer 1"><polyline class="cls-1" points="148.36 148.36 2.5 148.36 47.72 103.14"/><polyline class="cls-1" points="148.36 148.36 148.36 2.5 193.57 47.72"/><polyline class="cls-1" points="147.61 148.36 293.47 148.36 248.26 193.57"/><polyline class="cls-1" points="147.61 148.36 147.61 294.22 102.4 249"/><polyline class="cls-1" points="147.61 148.36 293.47 148.36 248.26 103.14"/><polyline class="cls-1" points="147.61 148.36 147.61 2.5 102.4 47.72"/><polyline class="cls-1" points="148.36 148.36 2.5 148.36 47.72 193.57"/><polyline class="cls-1" points="148.36 148.36 148.36 294.22 193.57 249"/><polyline class="cls-1" points="148.17 148.17 75.43 220.92 75.43 175.82"/><polyline class="cls-1" points="148.17 148.17 75.43 75.43 120.53 75.43"/><polyline class="cls-1" points="147.8 148.55 220.54 75.8 220.54 120.9"/><polyline class="cls-1" points="147.8 148.55 220.54 221.29 175.44 221.29"/><polyline class="cls-1" points="147.8 148.55 220.54 75.8 175.44 75.8"/><polyline class="cls-1" points="147.8 148.55 75.06 75.8 75.06 120.9"/><polyline class="cls-1" points="148.17 148.17 75.43 220.92 120.53 220.92"/><polyline class="cls-1" points="148.17 148.17 220.92 220.92 220.92 175.82"/><circle class="cls-2" cx="147.61" cy="148.21" r="26.31"/></g></g></svg>