<?xml version="1.0" encoding="utf-8"?>
<!-- Generator: Adobe Illustrator 21.0.2, SVG Export Plug-In . SVG Version: 6.00 Build 0)  -->
<!DOCTYPE svg PUBLIC "-//W3C//DTD SVG 1.1//EN" "http://www.w3.org/Graphics/SVG/1.1/DTD/svg11.dtd">
<svg version="1.1" id="Layer_1" xmlns="http://www.w3.org/2000/svg" xmlns:xlink="http://www.w3.org/1999/xlink" x="0px" y="0px"
	 viewBox="0 0 572.8 153.8" style="enable-background:new 0 0 572.8 153.8;" xml:space="preserve">
<style type="text/css">
	.st0{fill:#1A1A1A;}
	.st1{enable-background:new    ;}
</style>
<title>Asset 2</title>
<path class="st0" d="M58,82.7c0,0,3,16,25,16v28.1c-21,0-52.8-14.2-52.8-44.3c0-7.1,0.1-13.5,0.1-19.3L0,93.5c0,0.2,0.1,0.3,0.1,0.5
	L0,93.9v59.9h92.1L92,71c0,0-3-16-25-16V26.9c20,0,52.8,14.2,52.8,44.3c0,6.9-0.1,13.2-0.1,18.9L150,59.9l0,0l0,0V0H57.9L58,82.7z"
	/>
<g class="st1">
	<path d="M209.9,48.6c0.2,4.6-1.8,10.2-6,16.9c-2.5,4-7.2,10.1-13.8,18.4c-5,6.2-8.5,10.8-10.4,13.6c-3.2,4.7-4.8,8.2-4.8,10.6
		c0,3.5,3.6,5.3,10.9,5.3c3.7,0,10.3-0.6,19.7-1.9c11.2-1.4,19.4-2.2,24.4-2.2c3.3,0,6.2,0.2,8.7,0.6c1.3,0.2,1.8,0.9,1.7,2.2
		c-0.2,1.2-1,1.8-2.2,1.6c-2.4-0.4-5.1-0.6-8.1-0.6c-4.9,0-12.3,0.7-22.1,2.1c-9.8,1.4-17.1,2.1-22.1,2.1c-9.9,0-14.8-3-14.8-9.1
		c0-3,1.6-7,4.8-11.9c2-3,5.7-8,11.2-14.8c6.2-7.7,10.6-13.5,13-17.3c4.1-6.4,6.1-11.6,6-15.5c0-1.3,0.6-2,1.9-2
		C209.3,46.6,209.9,47.3,209.9,48.6z"/>
	<path d="M195.9,95.2c0-2.5,1.3-5.2,4-8c2.7-2.8,5.3-4.1,7.8-4.1c2.1,0,4.7,1.3,8,3.9c3.5,2.7,5.2,5.2,5.2,7.3
		c0,2.6-1.4,5.1-4.1,7.6c-2.8,2.5-5.5,3.7-8.1,3.7c-2.6,0-5.3-1.1-8.2-3.2C197.4,100.2,195.9,97.8,195.9,95.2z M208.1,87.2
		c-2,0-4,1.1-6,3.3c-1.7,1.9-2.6,3.5-2.7,4.8c0,1.4,1.2,3,3.5,4.6c2.2,1.5,4.2,2.3,5.8,2.3c1.7,0,3.6-0.9,5.6-2.7c2-1.8,3-3.5,3-5.1
		c0-1.4-1.2-2.9-3.6-4.6C211.4,88,209.5,87.2,208.1,87.2z"/>
	<path d="M262.3,108.3c-3.7,0-7.2-1.3-10.4-3.9c-1.8-1.4-4-3.8-6.6-7.2c-2-2.5-3.3-3.8-4-3.8c-3.3,0-6,4.9-8.4,14.8
		c-0.5,2.2-1.4,3.3-2.7,3.3c-1.2,0-1.9-1.2-1.9-3.5c0-2.2-0.3-4.9-0.8-8.1c-0.6-3.7-1.3-6.3-2.2-7.7c-0.3-0.4-0.4-0.9-0.4-1.4
		c0-1.3,0.6-2,1.9-2c1.7,0,3.2,3.5,4.5,10.4c2.7-6.5,6-9.8,9.9-9.8c1.9,0,4.1,1.5,6.6,4.6c3.5,4.2,5.4,6.6,5.9,7
		c2.2,1.7,5.1,2.8,8.8,3.3c1.2,0.2,1.9,0.9,1.9,2C264.4,107.7,263.7,108.3,262.3,108.3z"/>
	<path d="M282.8,113.4c4.4,1.5,8.1,3.3,11.2,5.4c3.7,2.5,5.6,5,5.6,7.4c0,0.6-0.1,1.2-0.4,1.8c-2.9,7-11.4,11-25.4,12.1
		c-2.2,0.2-4.4,0.3-6.8,0.3c-9.4,0-18.3-1.2-26.8-3.5c-9-2.4-14.7-5.5-17-9.3c-0.7-1.1-1.1-2.3-1.1-3.5c0-1.1,0.3-2.2,0.9-3.2
		c2.6-4.5,8.5-7.3,17.6-8.4c3-0.4,6.4-0.6,10.2-0.6c6.7,0,13.7,0.6,21,1.7c-1-2.9-1.5-6.1-1.5-9.6c0-1.5,0.1-3.1,0.3-4.8
		c-0.5,0.1-1,0.1-1.7,0.1c-2.1,0-4-0.4-5.6-1.2c-2-1-3-2.4-3-4.1c0-2,1.2-4,3.6-6c2.2-1.9,4.1-2.8,5.7-2.8c2.6,0,4.9,0.9,6.7,2.7
		c0.3,0.3,0.5,0.7,0.5,1.2c0,1.1-0.6,1.7-1.7,1.7c-0.4,0-0.8-0.2-1.2-0.5c-1.2-1.2-2.7-1.8-4.4-1.7c-0.7,0-1.9,0.7-3.5,2.1
		c-1.6,1.4-2.4,2.5-2.4,3.5c0.1,0.6,0.8,1.1,1.9,1.5c1.1,0.4,2.3,0.6,3.4,0.6c1,0,1.8-0.2,2.2-0.5c0.6-2.5,1.5-3.8,2.5-3.8
		c1.1,0,1.6,0.8,1.6,2.5c0,1.2-0.4,2.2-1.2,3.1c-0.4,2.1-0.6,4.2-0.6,6.3c0,2.8,0.3,5.4,1,7.8C276,111.5,278.7,112,282.8,113.4z
		 M295.5,126c0-1.3-1.2-2.9-3.7-4.5c-1.6-1.1-3.3-2-5-2.7c0,1.1-0.6,1.6-1.7,1.6c-0.4,0-0.7-0.1-1.1-0.3c-0.6-0.4-2.7-1-6.3-1.8
		c0.3,0.8,0.1,1.4-0.4,1.9c-0.3,0.2-0.7,0.4-1,0.4c-0.8,0-1.8-1-2.9-3c-6.5-1.2-13.1-1.7-19.9-1.7c-6.1,0-11.4,0.5-16,1.5
		c-2,0.4-4,1.2-6,2.2c-2.6,1.4-4,2.9-4,4.5c0,0.7,0.3,1.4,0.8,2.1c2.3,2.8,7.1,5.3,14.5,7.4c7.4,2.1,15.4,3.1,23.8,3.1
		c2.3,0,4.5-0.1,6.6-0.3c12.4-1,19.8-4.1,22-9.4C295.5,126.5,295.5,126.2,295.5,126z"/>
	<path d="M301.2,128.8c-5,0-7.6-1.1-7.6-3.4c0-2.1,2.1-3.6,6.3-4.8c2.9-0.8,5.9-1.2,8.9-1.2c3.5,0,5.2,0.8,5.2,2.3
		c0,0.6-0.3,1.3-1,2.1c23.2-1.1,44.1-3.7,62.5-8c30.4-7.1,45.6-17.2,45.6-30.5c0-4.7-2-8.9-6.1-12.7c-11.3-10.5-34.7-18.1-70.2-22.8
		c-23.7-3.1-49.5-4.7-77.4-4.7c-14.3,0-29.6,0.5-45.9,1.5c-4.9,0.3-7.3-0.8-7.3-3.2c0-1.4,0.9-2.6,2.8-3.6c1.5-0.8,3.1-1.2,4.6-1.2
		c0.6,0,1.2,0.2,1.6,0.7c0.4,0.5,0.6,1,0.6,1.5c0,0.4-0.1,0.7-0.3,1c14.3-0.9,28.9-1.3,43.8-1.3c34.2,0,64.4,2.1,90.6,6.4
		c45.2,7.4,67.8,20.2,67.8,38.4c0,11-8.7,20.2-26.1,27.5c-13.5,5.7-31.5,9.9-53.9,12.7C329.4,127.8,314.6,128.8,301.2,128.8z
		 M347.1,113.1c-3,0-5.6-6.8-7.8-20.3c-1.7-10.6-2.6-19-2.6-25.2c0-0.6,0.2-1.2,0.7-1.6c0.5-0.5,1-0.7,1.6-0.7
		c0.6,0,1.2,0.2,1.6,0.7c0.5,0.5,0.7,1,0.7,1.6c0,6.6,0.6,13.8,1.9,21.5c1.4,8.9,3.4,15.7,5.8,20.4c0.2,0.4,0.4,0.9,0.4,1.4
		C349.4,112.3,348.6,113.1,347.1,113.1z"/>
	<path d="M453.3,101.3c-2.2,4.4-6.3,6.6-12.2,6.6c-4.6,0-8.2-1.3-10.8-3.8c-2.6-2.5-3.9-6.1-3.9-10.7c0-1.8,0.2-3.6,0.7-5.5
		c0.7-2.7,1.6-4,2.9-4c1.2,0,1.8,0.7,1.8,2.1c0,0.9-0.2,2.1-0.6,3.7c-0.4,1.6-0.6,2.9-0.6,3.7c0,6.9,3.6,10.4,10.7,10.4
		c3.6,0,6.2-0.9,7.7-2.8c0.7-0.9,1.4-2.7,2.1-5.3c0.5-1.9,1.3-2.8,2.4-2.8s1.8,0.7,2.1,2.1c0.7,3.3,2.1,5.8,4.2,7.5
		c1.1,0.9,3,1.8,5.5,2.9c1.8,0.8,2.7,1.6,2.7,2.4c0,0.7-0.3,1.2-0.8,1.6c-0.5,0.4-1.1,0.5-1.8,0.4
		C460.2,108.6,456.2,105.8,453.3,101.3z"/>
	<path d="M469.1,95.2c0-2.5,1.3-5.2,4-8c2.7-2.8,5.3-4.1,7.8-4.1c2.1,0,4.7,1.3,8,3.9c3.5,2.7,5.2,5.2,5.2,7.3
		c0,2.6-1.4,5.1-4.1,7.6c-2.8,2.5-5.5,3.7-8.1,3.7c-2.6,0-5.3-1.1-8.2-3.2C470.7,100.2,469.1,97.8,469.1,95.2z M481.3,87.2
		c-2,0-4,1.1-6,3.3c-1.7,1.9-2.6,3.5-2.7,4.8c0,1.4,1.2,3,3.5,4.6c2.2,1.5,4.2,2.3,5.8,2.3c1.7,0,3.6-0.9,5.6-2.7c2-1.8,3-3.5,3-5.1
		c0-1.4-1.2-2.9-3.6-4.6C484.7,88,482.7,87.2,481.3,87.2z"/>
	<path d="M535.5,108.3c-3.7,0-7.2-1.3-10.4-3.9c-1.8-1.4-4-3.8-6.6-7.2c-2-2.5-3.3-3.8-4-3.8c-3.3,0-6,4.9-8.4,14.8
		c-0.5,2.2-1.4,3.3-2.7,3.3c-1.2,0-1.9-1.2-1.9-3.5c0-2.2-0.3-4.9-0.8-8.1c-0.6-3.7-1.3-6.3-2.2-7.7c-0.3-0.4-0.4-0.9-0.4-1.4
		c0-1.3,0.6-2,1.9-2c1.7,0,3.2,3.5,4.5,10.4c2.7-6.5,6-9.8,9.9-9.8c1.9,0,4.1,1.5,6.6,4.6c3.5,4.2,5.4,6.6,5.9,7
		c2.2,1.7,5.1,2.8,8.8,3.3c1.2,0.2,1.9,0.9,1.9,2C537.7,107.7,536.9,108.3,535.5,108.3z"/>
	<path d="M556,113.4c4.4,1.5,8.1,3.3,11.2,5.4c3.7,2.5,5.6,5,5.6,7.4c0,0.6-0.1,1.2-0.4,1.8c-2.9,7-11.4,11-25.4,12.1
		c-2.2,0.2-4.4,0.3-6.8,0.3c-9.4,0-18.3-1.2-26.8-3.5c-9-2.4-14.7-5.5-17-9.3c-0.7-1.1-1.1-2.3-1.1-3.5c0-1.1,0.3-2.2,0.9-3.2
		c2.6-4.5,8.5-7.3,17.6-8.4c3-0.4,6.4-0.6,10.2-0.6c6.7,0,13.7,0.6,21,1.7c-1-2.9-1.5-6.1-1.5-9.6c0-1.5,0.1-3.1,0.3-4.8
		c-0.5,0.1-1,0.1-1.7,0.1c-2.1,0-4-0.4-5.6-1.2c-2-1-3-2.4-3-4.1c0-2,1.2-4,3.6-6c2.2-1.9,4.1-2.8,5.7-2.8c2.6,0,4.9,0.9,6.7,2.7
		c0.3,0.3,0.5,0.7,0.5,1.2c0,1.1-0.6,1.7-1.7,1.7c-0.4,0-0.8-0.2-1.2-0.5c-1.2-1.2-2.7-1.8-4.4-1.7c-0.7,0-1.9,0.7-3.5,2.1
		c-1.6,1.4-2.4,2.5-2.4,3.5c0.1,0.6,0.8,1.1,1.9,1.5c1.1,0.4,2.3,0.6,3.4,0.6c1,0,1.8-0.2,2.2-0.5c0.6-2.5,1.5-3.8,2.5-3.8
		c1.1,0,1.6,0.8,1.6,2.5c0,1.2-0.4,2.2-1.2,3.1c-0.4,2.1-0.6,4.2-0.6,6.3c0,2.8,0.3,5.4,1,7.8C549.2,111.5,551.9,112,556,113.4z
		 M568.8,126c0-1.3-1.2-2.9-3.7-4.5c-1.6-1.1-3.3-2-5-2.7c0,1.1-0.6,1.6-1.7,1.6c-0.4,0-0.7-0.1-1.1-0.3c-0.6-0.4-2.7-1-6.3-1.8
		c0.3,0.8,0.1,1.4-0.4,1.9c-0.3,0.2-0.7,0.4-1,0.4c-0.8,0-1.8-1-2.9-3c-6.5-1.2-13.1-1.7-19.9-1.7c-6.1,0-11.4,0.5-16,1.5
		c-2,0.4-4,1.2-6,2.2c-2.6,1.4-4,2.9-4,4.5c0,0.7,0.3,1.4,0.8,2.1c2.3,2.8,7.1,5.3,14.5,7.4c7.4,2.1,15.4,3.1,23.8,3.1
		c2.3,0,4.5-0.1,6.6-0.3c12.4-1,19.8-4.1,22-9.4C568.7,126.5,568.8,126.2,568.8,126z"/>
</g>
</svg>
