<svg xmlns="http://www.w3.org/2000/svg" viewBox="0 0 276.1 276.1"><defs><style>.cls-1{fill:none;stroke:#000;stroke-linecap:round;stroke-width:5px;}</style></defs><title>Asset 1</title><g id="Layer_2" data-name="Layer 2"><g id="Layer_1-2" data-name="Layer 1"><circle class="cls-1" cx="111.17" cy="111.17" r="108.67" transform="translate(-46.05 111.17) rotate(-45)"/><circle class="cls-1" cx="111.17" cy="111.17" r="89.28" transform="translate(-46.05 111.17) rotate(-45)"/><path class="cls-1" d="M43.53,128.83a35.31,35.31,0,0,0,50,0"/><path class="cls-1" d="M133.58,53.21a35.31,35.31,0,0,0-50,0"/><path class="cls-1" d="M128.3,163.64a35.31,35.31,0,0,0,35.33-35.33"/><path class="cls-1" d="M143.12,124.89a35.31,35.31,0,0,0-35.33-35.33"/><rect class="cls-1" x="212.03" y="185.4" width="42.74" height="96" rx="21.37" ry="21.37" transform="translate(-96.68 233.4) rotate(-45)"/><path class="cls-1" d="M199.46,199.46h0a21.25,21.25,0,0,1,12.19-6l-14.53-14.53-18.23,18.23,14.53,14.53A21.25,21.25,0,0,1,199.46,199.46Z"/></g></g></svg>