<svg xmlns="http://www.w3.org/2000/svg" viewBox="0 0 255 255"><defs><style>.cls-1{fill:none;stroke:#000;stroke-width:5px;}</style></defs><title>Asset 5</title><g id="Layer_2" data-name="Layer 2"><g id="Layer_1-2" data-name="Layer 1"><rect class="cls-1" x="2.5" y="2.5" width="250" height="250" rx="14.71" ry="14.71"/><path d="M85,134.63a12.45,12.45,0,0,0,20,0Z"/><path d="M85,119.63h20a12.45,12.45,0,0,0-20,0Z"/><path d="M202.66,114.63H107.22a17.57,17.57,0,0,1,3.56,5h91.88a7.5,7.5,0,0,1,0,15H110.79a17.57,17.57,0,0,1-3.56,5h95.44a12.5,12.5,0,0,0,0-25Z"/><path d="M79.21,134.63H53.75a7.5,7.5,0,1,1,0-15H79.21a17.57,17.57,0,0,1,3.56-5h-29a12.5,12.5,0,1,0,0,25h29A17.57,17.57,0,0,1,79.21,134.63Z"/><path d="M95,114.63a12.5,12.5,0,1,0,12.5,12.5A12.51,12.51,0,0,0,95,114.63Z"/><path d="M128.23,157.32h20a12.45,12.45,0,0,0-20,0Z"/><path d="M128.23,172.32a12.45,12.45,0,0,0,20,0Z"/><path d="M122.42,172.32H53.75a7.5,7.5,0,0,1,0-15h68.67a17.57,17.57,0,0,1,3.56-5H53.75a12.5,12.5,0,0,0,0,25H126A17.57,17.57,0,0,1,122.42,172.32Z"/><path d="M202.66,152.32H150.43a17.57,17.57,0,0,1,3.56,5h48.67a7.5,7.5,0,0,1,0,15H154a17.57,17.57,0,0,1-3.56,5h52.23a12.5,12.5,0,0,0,0-25Z"/><path d="M138.21,152.32a12.5,12.5,0,1,0,12.5,12.5A12.51,12.51,0,0,0,138.21,152.32Z"/><path d="M167,81.94h20a12.45,12.45,0,0,0-20,0Z"/><path d="M167,96.94a12.45,12.45,0,0,0,20,0Z"/><path d="M161.21,96.94H53.75a7.5,7.5,0,0,1,0-15H161.21a17.57,17.57,0,0,1,3.56-5h-111a12.5,12.5,0,0,0,0,25h111A17.57,17.57,0,0,1,161.21,96.94Z"/><path d="M202.66,76.94H189.22a17.57,17.57,0,0,1,3.56,5h9.88a7.5,7.5,0,0,1,0,15h-9.88a17.57,17.57,0,0,1-3.56,5h13.44a12.5,12.5,0,0,0,0-25Z"/><path d="M177,76.94a12.5,12.5,0,1,0,12.5,12.5A12.51,12.51,0,0,0,177,76.94Z"/></g></g></svg>